<svg width="16" height="16" viewBox="0 0 16 16" fill="none" xmlns="http://www.w3.org/2000/svg">
<path d="M13.9779 2.13989H2.02209C0.90713 2.13989 0 3.04702 0 4.16198V11.8377C0 12.9527 0.90713 13.8598 2.02209 13.8598H13.9779C15.0929 13.8598 16 12.9527 16 11.8377V4.16198C16 3.04702 15.0929 2.13989 13.9779 2.13989ZM13.662 3.44424L8 7.81807L2.338 3.44424H13.662ZM13.9779 12.5555H2.02209C1.62635 12.5555 1.30435 12.2335 1.30435 11.8378V4.29398L7.6013 9.15833C7.7187 9.24902 7.85939 9.29433 8 9.29433C8.14061 9.29433 8.2813 9.24902 8.3987 9.15833L14.6957 4.29398V11.8377C14.6957 12.2335 14.3737 12.5555 13.9779 12.5555Z" fill="#86868B"/>
</svg>
