<svg width="16" height="16" viewBox="0 0 16 16" fill="none" xmlns="http://www.w3.org/2000/svg">
<g clip-path="url(#clip0)">
<path d="M12.5 16H3.5C2.67333 16 2 15.3273 2 14.5V7.5C2 6.67267 2.67333 6 3.5 6H12.5C13.3267 6 14 6.67267 14 7.5V14.5C14 15.3273 13.3267 16 12.5 16ZM3.5 7C3.22467 7 3 7.224 3 7.5V14.5C3 14.776 3.22467 15 3.5 15H12.5C12.7753 15 13 14.776 13 14.5V7.5C13 7.224 12.7753 7 12.5 7H3.5Z" fill="#86868B"/>
<path d="M11.5 7C11.224 7 11 6.776 11 6.5V4C11 2.346 9.654 1 8 1C6.346 1 5 2.346 5 4V6.5C5 6.776 4.776 7 4.5 7C4.224 7 4 6.776 4 6.5V4C4 1.794 5.794 0 8 0C10.206 0 12 1.794 12 4V6.5C12 6.776 11.776 7 11.5 7Z" fill="#86868B"/>
<path d="M8.00026 11.3345C7.26496 11.3345 6.66699 10.7365 6.66699 10.0012C6.66699 9.26594 7.26496 8.66797 8.00026 8.66797C8.73556 8.66797 9.33354 9.26594 9.33354 10.0012C9.33354 10.7365 8.73556 11.3345 8.00026 11.3345ZM8.00026 9.66792C7.81694 9.66792 7.66695 9.81725 7.66695 10.0012C7.66695 10.1852 7.81694 10.3346 8.00026 10.3346C8.18359 10.3346 8.33358 10.1852 8.33358 10.0012C8.33358 9.81725 8.18359 9.66792 8.00026 9.66792Z" fill="#86868B"/>
<path d="M8 13.3331C7.724 13.3331 7.5 13.1091 7.5 12.8331V11C7.5 10.724 7.724 10.5 8 10.5C8.276 10.5 8.5 10.724 8.5 11V12.8331C8.5 13.1091 8.276 13.3331 8 13.3331Z" fill="#86868B"/>
</g>
<defs>
<clipPath id="clip0">
<rect width="16" height="16" fill="white"/>
</clipPath>
</defs>
</svg>
