<svg width="32" height="32" viewBox="0 0 32 32" fill="none" xmlns="http://www.w3.org/2000/svg">
<g clip-path="url(#clip0)">
<path d="M28.3498 6.6283H3.65028C3.21405 6.6283 2.85913 6.98315 2.85913 7.41937V22.0205C2.85913 22.4568 3.21405 22.8116 3.65028 22.8116H28.3498C28.786 22.8116 29.1409 22.4568 29.1409 22.0205V7.41944C29.1409 6.98322 28.786 6.6283 28.3498 6.6283ZM28.456 22.0205C28.456 22.0791 28.4084 22.1267 28.3498 22.1267H3.65028C3.59172 22.1267 3.54405 22.079 3.54405 22.0205V7.41944C3.54405 7.36088 3.59165 7.31328 3.65028 7.31328H28.3498C28.4083 7.31328 28.456 7.36095 28.456 7.41944V22.0205Z" fill="black"/>
<path d="M31.4863 23.3254H30.682V7.04389C30.682 5.96501 29.8042 5.08722 28.7253 5.08722H3.27479C2.19584 5.08722 1.31812 5.96494 1.31812 7.04389V23.3253H0.513687C0.229926 23.3253 0 23.5553 0 23.839V25.2502C0 26.1669 0.745804 26.9127 1.66243 26.9127H30.3375C31.2542 26.9127 31.9999 26.1669 31.9999 25.2502V23.839C32 23.5553 31.7701 23.3254 31.4863 23.3254ZM2.34542 7.04389C2.34542 6.5315 2.76233 6.11459 3.27472 6.11459H28.7252C29.2376 6.11459 29.6545 6.53143 29.6545 7.04389V23.3253H2.34542V7.04389ZM14.4932 24.3527H17.5068V24.6213C17.5068 24.7416 17.409 24.8394 17.2887 24.8394H14.7112C14.5909 24.8394 14.4931 24.7416 14.4931 24.6213V24.3527H14.4932ZM30.9727 25.2503C30.9727 25.6005 30.6878 25.8854 30.3376 25.8854H1.6625C1.3123 25.8854 1.02744 25.6004 1.02744 25.2503V24.3527H1.83181H13.8083V24.6213C13.8083 25.1193 14.2134 25.5243 14.7113 25.5243H17.2888C17.7868 25.5243 18.1918 25.1193 18.1918 24.6213V24.3527H30.1683H30.9727V25.2503Z" fill="black"/>
</g>
<defs>
<clipPath id="clip0">
<rect width="32" height="32" fill="white"/>
</clipPath>
</defs>
</svg>
