<svg width="863" height="422" viewBox="0 0 863 422" fill="none" xmlns="http://www.w3.org/2000/svg">
<path d="M698.702 10.076H515H215.298C207.403 10.076 201 16.4791 201 24.3741V286.369L452.483 322.42L713 286.369V24.3741C712.999 16.4791 706.596 10.076 698.702 10.076Z" fill="#A6E2E3"/>
<path d="M698.702 10.076H515L318.528 334.836H411.45H502.561H698.702C706.596 334.836 712.999 328.433 712.999 320.527V286.37V24.3741C712.999 16.4791 706.596 10.076 698.702 10.076Z" fill="#7CCBCC"/>
<path d="M502.561 327.734L513.284 416.372H400.727L411.45 327.734H502.561Z" fill="#808080"/>
<path d="M509.676 386.548L502.561 327.734H411.45L404.335 386.548H509.676Z" fill="#616161"/>
<path d="M347.845 286.369H201V320.527C201 328.433 207.403 334.836 215.298 334.836H318.529H411.451H502.562H698.703C706.597 334.836 713 328.433 713 320.527V286.369H347.845Z" fill="#CCCCCC"/>
<path d="M347.85 286.369L318.528 334.836H698.702C706.596 334.836 712.999 328.433 712.999 320.527V286.37L347.85 286.369Z" fill="#ADADAD"/>
<path d="M553.308 421.923H360.696C356.554 421.923 353.196 418.565 353.196 414.423C353.196 410.281 356.554 406.923 360.696 406.923H553.307C557.449 406.923 560.807 410.281 560.807 414.423C560.807 418.565 557.45 421.923 553.308 421.923Z" fill="#CCCCCC"/>
<path fill-rule="evenodd" clip-rule="evenodd" d="M328.12 73.4933H538.784C543.91 73.4933 548.11 77.6933 548.11 82.8196V115.494C548.11 120.62 543.909 124.821 538.784 124.821H328.12C322.961 124.821 318.76 120.621 318.76 115.494V82.8196C318.761 77.6933 322.961 73.4933 328.12 73.4933Z" fill="#E27F84"/>
<path fill-rule="evenodd" clip-rule="evenodd" d="M537 73H566.168C571.294 73 575.494 77.2 575.494 82.3263V115.001C575.494 120.126 571.293 124.327 566.168 124.327H537C542.125 124.327 546.325 120.127 546.325 115.001V82.3263C546.325 77.2 542.125 73 537 73Z" fill="#C9646D"/>
<path d="M327.524 189.974C322.696 189.974 318.76 186.039 318.76 181.21C318.76 176.381 322.696 172.48 327.524 172.48H539.346C544.175 172.48 548.11 176.382 548.11 181.21C548.11 186.038 544.175 189.974 539.346 189.974H327.524ZM327.524 224.964C322.696 224.964 318.76 221.061 318.76 216.232C318.76 211.371 322.696 207.468 327.524 207.468H498.536C503.365 207.468 507.3 211.371 507.3 216.232C507.3 221.061 503.365 224.964 498.536 224.964H327.524Z" fill="#365E7D"/>
<path d="M133.861 334.662C136.806 339.507 135.218 345.786 130.374 348.692C125.528 351.637 119.25 350.048 116.344 345.204L25.1125 193.515C22.7104 189.485 23.3694 184.486 26.3909 181.23L115.838 71.5907C119.365 67.2116 125.836 66.5526 130.216 70.0799C134.596 73.6455 135.256 80.0782 131.689 84.4586L46.3491 189.098L133.861 334.662Z" fill="#365E7D"/>
<path fill-rule="evenodd" clip-rule="evenodd" d="M117.584 327.299C154.13 327.299 185.598 349.195 199.512 380.626L119.172 388.454L35.6549 380.626C49.5688 349.195 81.0373 327.299 117.584 327.299Z" fill="#EBE8FA"/>
<path fill-rule="evenodd" clip-rule="evenodd" d="M117.584 327.299C154.13 327.299 185.598 349.195 199.512 380.626H165.33C153.627 354.234 129.559 334.545 100.492 328.926C106.035 327.841 111.732 327.299 117.584 327.299Z" fill="#DDDAEC"/>
<path fill-rule="evenodd" clip-rule="evenodd" d="M20.5023 380.626H214.668C225.946 380.626 235.17 389.849 235.17 401.128C235.17 412.406 225.946 421.629 214.668 421.629H20.5023C9.22441 421.629 0 412.406 0 401.128C0 389.849 9.22441 380.626 20.5023 380.626Z" fill="#80B4FB"/>
<path fill-rule="evenodd" clip-rule="evenodd" d="M181 380.62H215.182C226.46 380.62 235.685 389.842 235.685 401.121C235.685 412.398 226.46 421.62 215.182 421.62H181C192.278 421.62 201.501 412.398 201.501 401.121C201.501 389.842 192.278 380.62 181 380.62Z" fill="#61A2F9"/>
<path fill-rule="evenodd" clip-rule="evenodd" d="M264.662 96.5487C272.917 104.842 278.071 116.314 278.071 128.948C278.071 154.255 257.569 174.757 232.262 174.757C219.628 174.757 208.156 169.641 199.861 161.347L226.758 123.521L264.662 96.5487Z" fill="#FFE07D"/>
<path fill-rule="evenodd" clip-rule="evenodd" d="M264.662 96.5487C272.917 104.842 278.071 116.314 278.071 128.948C278.071 154.255 257.569 174.757 232.262 174.757C226.216 174.757 220.441 173.594 215.171 171.462C231.99 164.681 243.888 148.209 243.888 128.947C243.888 125.343 243.462 121.854 242.687 118.522L264.662 96.5487Z" fill="#FFD064"/>
<path fill-rule="evenodd" clip-rule="evenodd" d="M117.934 85.1942L146.884 42.6022L188.506 14.6213L277.528 68.6471C283.768 72.4452 283.923 77.2891 279.155 82.0565L185.366 175.846C180.406 180.806 175.406 179.876 171.957 174.219L117.934 85.1942Z" fill="#80B4FB"/>
<path fill-rule="evenodd" clip-rule="evenodd" d="M175.6 27.5262L188.505 14.6213L277.527 68.6471C283.767 72.4452 283.921 77.2891 279.154 82.0565L185.365 175.846C180.404 180.806 175.405 179.876 171.955 174.219L164.708 162.32L244.97 82.0578C249.737 77.2918 249.581 72.4465 243.342 68.6485L175.6 27.5262Z" fill="#61A2F9"/>
<path fill-rule="evenodd" clip-rule="evenodd" d="M117.934 14.62C137.427 -4.87334 169.013 -4.87334 188.506 14.62L117.934 85.1942C98.4388 65.7009 98.4388 34.1134 117.934 14.62Z" fill="#EBE8FA"/>
<path fill-rule="evenodd" clip-rule="evenodd" d="M136.147 3.03175C153.781 -3.40087 174.362 0.473736 188.506 14.62L117.934 85.1943C111.732 78.9927 107.507 71.5908 105.26 63.724L154.324 14.62C149.015 9.31124 142.775 5.43526 136.147 3.03175Z" fill="#DDDAEC"/>
<path fill-rule="evenodd" clip-rule="evenodd" d="M33.8721 222.117C52.5519 222.117 67.7824 206.885 67.7824 188.205C67.7824 169.563 52.5519 154.333 33.8721 154.333C15.2318 154.333 0 169.565 0 188.206C0 206.885 15.2318 222.117 33.8721 222.117Z" fill="#EBE8FA"/>
<path fill-rule="evenodd" clip-rule="evenodd" d="M33.8721 154.333C52.5903 154.333 67.7824 169.525 67.7824 188.205C67.7824 206.923 52.5903 222.117 33.8721 222.117C27.6705 222.117 21.819 220.41 16.7809 217.504C26.8571 211.613 33.6014 200.685 33.6014 188.205C33.6014 175.725 26.8571 164.836 16.7809 158.944C21.8203 156.039 27.6719 154.333 33.8721 154.333Z" fill="#DDDAEC"/>
<path d="M572.918 178.623H799.244V241.592H572.918V178.623Z" fill="#FFDA45"/>
<path d="M774.007 178.623H799.244V241.592H774.007V178.623Z" fill="#FAC800"/>
<path d="M702.702 178.623H774.303V241.592H702.702V178.623Z" fill="#FFF5F5"/>
<path d="M846.099 417.598H621.515C603.148 417.598 588.258 402.708 588.258 384.341C588.258 365.974 603.148 351.084 621.515 351.084H846.099V417.598Z" fill="#F0F5FA"/>
<path d="M822.624 351.084H846.099V417.598H822.624V351.084Z" fill="#E4ECF2"/>
<path d="M857.837 422H621.515C600.751 422 583.856 405.106 583.856 384.341C583.856 363.576 600.75 346.682 621.515 346.682H857.837C860.268 346.682 862.239 348.653 862.239 351.084C862.239 353.514 860.268 355.485 857.837 355.485H621.515C605.605 355.485 592.66 368.43 592.66 384.341C592.66 400.252 605.604 413.197 621.515 413.197H857.837C860.268 413.197 862.239 415.167 862.239 417.598C862.239 420.029 860.268 422 857.837 422Z" fill="#6E9EFF"/>
<path d="M846.099 377.657H664.803C662.372 377.657 660.401 375.687 660.401 373.256C660.401 370.825 662.372 368.854 664.803 368.854H846.099V377.657Z" fill="#C5D7E6"/>
<path d="M846.099 399.829H712.94C710.509 399.829 708.538 397.858 708.538 395.427C708.538 392.996 710.509 391.026 712.94 391.026H846.099V399.829Z" fill="#C5D7E6"/>
<path d="M808.456 342.305H589.925C578.038 342.305 568.402 332.669 568.402 320.782C568.402 308.895 578.038 299.258 589.925 299.258H808.457V342.305H808.456Z" fill="#F0F5FA"/>
<path d="M784.98 299.258H808.456V342.305H784.98V299.258Z" fill="#E4ECF2"/>
<path d="M821.922 346.707H589.925C575.63 346.707 564 335.077 564 320.782C564 306.486 575.63 294.856 589.925 294.856H821.922C824.353 294.856 826.323 296.827 826.323 299.258C826.323 301.689 824.353 303.66 821.922 303.66H589.925C580.485 303.66 572.803 311.34 572.803 320.782C572.803 330.223 580.484 337.904 589.925 337.904H821.922C824.353 337.904 826.323 339.875 826.323 342.305C826.323 344.736 824.353 346.707 821.922 346.707Z" fill="#74D84B"/>
<path d="M808.456 326.098H746.648C744.217 326.098 742.246 324.127 742.246 321.696C742.246 319.265 744.217 317.294 746.648 317.294H808.456V326.098Z" fill="#C5D7E6"/>
<path d="M641.203 126.402H816.607C829.812 126.402 840.516 137.107 840.516 150.311C840.516 163.516 829.811 174.22 816.607 174.22H641.203V126.402Z" fill="#F0F5FA"/>
<path d="M816.607 126.402H793.131C806.336 126.402 817.041 137.107 817.041 150.311C817.041 163.516 806.336 174.22 793.131 174.22H816.607C829.812 174.22 840.516 163.516 840.516 150.311C840.516 137.107 829.812 126.402 816.607 126.402Z" fill="#E4ECF2"/>
<path d="M816.607 178.623H626.245C623.814 178.623 621.843 176.652 621.843 174.221C621.843 171.79 623.814 169.819 626.245 169.819H816.607C827.363 169.819 836.115 161.068 836.115 150.312C836.115 139.555 827.363 130.803 816.607 130.803H626.245C623.814 130.803 621.843 128.833 621.843 126.402C621.843 123.971 623.814 122 626.245 122H816.607C832.218 122 844.918 134.7 844.918 150.311C844.918 165.922 832.218 178.623 816.607 178.623Z" fill="#FC435F"/>
<path d="M598.391 241.591H860.087V294.856H598.391V241.591Z" fill="#6E9EFF"/>
<path d="M780.171 241.591H860.087V294.856H780.171V241.591Z" fill="#BF6930"/>
<path d="M836.611 241.591H860.087V294.856H836.611V241.591Z" fill="#AD5F2C"/>
<path d="M688.421 277.027H628.553C623.691 277.027 619.749 273.086 619.749 268.224C619.749 263.362 623.691 259.421 628.553 259.421H688.421C693.283 259.421 697.224 263.362 697.224 268.224C697.224 273.086 693.283 277.027 688.421 277.027Z" fill="#FFF5F5"/>
<path d="M834.654 272.626H805.995C803.564 272.626 801.593 270.655 801.593 268.224C801.593 265.793 803.564 263.822 805.995 263.822H834.654C837.085 263.822 839.056 265.793 839.056 268.224C839.056 270.655 837.086 272.626 834.654 272.626Z" fill="#FFF5F5"/>
<path d="M754.544 219.985C752.113 219.985 750.142 218.014 750.142 215.583V204.631C750.142 202.2 752.113 200.229 754.544 200.229C756.974 200.229 758.945 202.2 758.945 204.631V215.583C758.945 218.014 756.975 219.985 754.544 219.985Z" fill="#677A8F"/>
<path d="M738.502 219.985C736.071 219.985 734.1 218.014 734.1 215.583V204.631C734.1 202.2 736.071 200.229 738.502 200.229C740.933 200.229 742.904 202.2 742.904 204.631V215.583C742.904 218.014 740.934 219.985 738.502 219.985Z" fill="#677A8F"/>
<path d="M722.461 219.985C720.03 219.985 718.059 218.014 718.059 215.583V204.631C718.059 202.2 720.03 200.229 722.461 200.229C724.892 200.229 726.862 202.2 726.862 204.631V215.583C726.862 218.014 724.892 219.985 722.461 219.985Z" fill="#677A8F"/>
<path d="M641.078 145.909H741.518C743.948 145.909 745.919 147.88 745.919 150.311C745.919 152.742 743.948 154.713 741.518 154.713H641.078V145.909Z" fill="#C5D7E6"/>
</svg>
